<?xml version="1.0" standalone="no"?>
<!DOCTYPE svg PUBLIC "-//W3C//DTD SVG 20010904//EN"
 "http://www.w3.org/TR/2001/REC-SVG-20010904/DTD/svg10.dtd">
<svg version="1.0" xmlns="http://www.w3.org/2000/svg"
 width="589.000000pt" height="589.000000pt" viewBox="0 0 589.000000 589.000000"
 preserveAspectRatio="xMidYMid meet">
<metadata>
Created by potrace 1.11, written by Peter Selinger 2001-2013
</metadata>
<g transform="translate(0.000000,589.000000) scale(0.100000,-0.100000)"
fill="#000000" stroke="none">
<path d="M1410 4740 l0 -1150 788 0 787 1 553 1053 c303 579 552 1055 552
1059 0 7 -350 190 -354 186 -2 -2 -227 -430 -501 -951 l-498 -948 -464 0 -463
0 0 750 0 750 485 0 485 0 0 -96 0 -97 -235 -447 c-129 -246 -235 -452 -235
-458 0 -14 343 -193 351 -184 4 4 122 226 263 495 l256 487 0 350 0 350 -885
0 -885 0 0 -1150z"/>
<path d="M1410 1725 l0 -1705 880 0 880 0 0 813 0 812 -261 585 c-144 322
-263 587 -265 589 -4 5 -354 -150 -360 -160 -2 -4 106 -255 241 -558 l245
-550 0 -565 0 -566 -480 0 -480 0 0 1305 0 1305 459 0 459 0 687 -1512 c378
-832 689 -1515 690 -1517 4 -4 365 160 365 166 0 2 -333 736 -739 1631 l-740
1627 -790 3 -791 2 0 -1705z"/>
</g>
</svg>
